<?xml version="1.0" encoding="iso-8859-1"?>
<!-- Generator: Adobe Illustrator 19.1.0, SVG Export Plug-In . SVG Version: 6.00 Build 0)  -->
<svg version="1.1" id="Layer_1" xmlns="http://www.w3.org/2000/svg" xmlns:xlink="http://www.w3.org/1999/xlink" x="0px" y="0px"
	width="64px" height="64px" viewBox="0 0 64 64" style="enable-background:new 0 0 64 64;" xml:space="preserve">
<g id="icon-m-sailfish">
	<rect id="icon-m-sailfish_1_" style="opacity:0;fill:#FFFFFF;" width="64" height="64"/>
	<g>
		<path style="fill:#FFFFFF;" d="M26.775,54.859l-1.103-1.669c0.066-0.044,6.556-4.404,6.556-9.665c0-2.943-2.27-5.213-4.672-7.617
			c-2.752-2.753-5.599-5.601-5.599-9.849c0-14.127,20.078-19.854,20.932-20.092l3.076-0.852L43.927,7.6
			C43.896,7.638,40.64,12,40.64,19h-2c0-5,1.194-8.096,2.235-10.208c-5.28,1.994-16.917,7.487-16.917,17.282
			c0,3.42,2.435,5.849,5.013,8.427c2.585,2.586,5.258,5.256,5.258,9.028C34.229,49.87,27.079,54.658,26.775,54.859z"/>
		<path style="fill:#FFFFFF;" d="M37.265,31.409l-1.709-1.038c2.317-3.815,8.623-6.694,11.12-7.717
			c-2.6-0.687-4.482-2.434-5.33-3.355c-1.873,0.749-7.411,3.22-9.584,7.026l-1.736-0.992c2.996-5.247,10.958-8.047,11.296-8.164
			l1.123,0.341c0.03,0.04,3.231,4.159,7.663,3.312c2.133-0.408,4.227-0.999,5.922-1.541l3.863-1.378l0.716,1.867
			c-0.114,0.047-1.714,0.701-4.022,1.437l-8.207,2.928C48.299,24.164,39.756,27.309,37.265,31.409z"/>
		<path style="fill:#FFFFFF;" d="M11.188,58.931l-0.193-1.986c1.564-0.253,3.529-0.625,5.682-1.153
			c2.791-1.104,5.255-2.978,7.198-5.521c3.139-4.107,4.454-9.336,3.431-13.645l1.946-0.461c1.157,4.877-0.294,10.747-3.788,15.319
			c-0.604,0.791-1.253,1.523-1.943,2.196c7.33-2.803,14.389-7.581,14.389-15.59c0-3.226-1.935-5.006-4.176-7.066
			c-2.411-2.218-5.145-4.732-5.145-9.38c0-8.16,8.526-13.728,8.89-13.961l1.081,1.682c-0.08,0.052-7.971,5.219-7.971,12.279
			c0,3.771,2.185,5.781,4.499,7.908c2.37,2.181,4.821,4.435,4.821,8.539c0,11.796-13.028,17.211-22.574,19.594
			C15.409,58.436,13.343,58.86,11.188,58.931z"/>
	</g>
</g>
</svg>
