<?xml version="1.0" encoding="iso-8859-1"?>
<!-- Generator: Adobe Illustrator 19.1.0, SVG Export Plug-In . SVG Version: 6.00 Build 0)  -->
<svg version="1.1" id="Layer_1" xmlns="http://www.w3.org/2000/svg" xmlns:xlink="http://www.w3.org/1999/xlink" x="0px" y="0px"
	width="32px" height="32px" viewBox="0 0 32 32" style="enable-background:new 0 0 32 32;" xml:space="preserve">
<g id="icon-lock-system-update">
	<rect id="icon-lock-system-update_2_" style="opacity:0;fill:#FFFFFF;" width="32" height="32"/>
	<g>
		<path style="opacity:0.6;fill:#45DDEB;" d="M30.965,0H16c-1.105,0-2.183,0.112-3.224,0.325C5.484,1.816,0,8.268,0,16v14.965
			C0,30.965,0.343,32,1.047,32H16c1.657,0,3.255-0.252,4.758-0.719C27.271,29.255,32,23.18,32,16V1.07C32,0.366,31.669,0,30.965,0z"
			/>
	</g>
	<g>
		<path style="fill:#FFFFFF;" d="M12.884,27.266l-0.698-1.328c0.031-0.016,3.099-1.667,3.099-4.105c0-1.406-1.009-2.622-2.078-3.909
			c-1.208-1.455-2.578-3.105-2.578-5.291c0-7.839,9.872-10.111,10.292-10.204l1.735-0.383L21.72,3.557
			c-0.017,0.027-1.681,2.746-1.733,5.534l-1.5-0.028c0.034-1.778,0.608-3.48,1.127-4.667c-2.624,0.951-7.484,3.37-7.484,8.237
			c0,1.644,1.084,2.95,2.232,4.333c1.192,1.435,2.424,2.919,2.424,4.867C16.785,25.182,13.043,27.183,12.884,27.266z"/>
		<path style="fill:#FFFFFF;" d="M18.265,15.435l-1.282-0.778c1.035-1.704,3.583-3.035,5.072-3.699
			c-0.929-0.387-1.628-0.995-2.029-1.406c-1.031,0.427-3.514,1.599-4.506,3.338l-1.303-0.744c1.542-2.701,5.606-4.131,5.778-4.19
			l0.843,0.256c0.015,0.018,1.53,1.951,3.582,1.56c1.051-0.201,2.085-0.493,2.924-0.761l1.926-0.688l0.537,1.4
			c-0.058,0.024-0.862,0.353-2.025,0.724l-4.094,1.461C22.519,12.332,19.259,13.798,18.265,15.435z"/>
		<path style="fill:#FFFFFF;" d="M5.033,29.303l-0.145-1.49c0.911-0.147,1.773-0.31,2.588-0.486
			c1.434-0.522,2.699-1.459,3.687-2.751c1.5-1.964,2.156-4.558,1.669-6.607l1.46-0.346c0.595,2.508-0.147,5.521-1.938,7.863
			c-0.149,0.194-0.303,0.382-0.462,0.563c4.18-1.605,6.229-3.898,6.229-6.932c0-1.524-0.942-2.487-2.033-3.602
			c-1.229-1.256-2.622-2.68-2.622-5.088c0-4.215,3.713-6.607,3.871-6.707l0.802,1.268c-0.031,0.02-3.173,2.063-3.173,5.439
			c0,1.797,1.066,2.886,2.194,4.039c1.153,1.179,2.461,2.515,2.461,4.651c0,6.374-7.232,8.729-11.854,9.698
			C6.9,29.105,5.983,29.271,5.033,29.303z"/>
	</g>
</g>
</svg>
